<?xml version="1.0" encoding="UTF-8" standalone="no"?><svg xmlns="http://www.w3.org/2000/svg" xmlns:xlink="http://www.w3.org/1999/xlink" contentScriptType="application/ecmascript" contentStyleType="text/css" height="1852px" preserveAspectRatio="none" style="width:1120px;height:1852px;" version="1.1" viewBox="0 0 1120 1852" width="1120px" zoomAndPan="magnify"><defs/><g><!--MD5=[0b4e4b4980470ea387cc45de9bd14b5b]
class Application--><rect fill="#F5F7FA" height="101.875" id="Application" rx="2" ry="2" style="stroke: #5A5A8A; stroke-width: 1.0;" width="225" x="884" y="8"/><ellipse cx="957.5" cy="23" fill="#ADD1B2" rx="10" ry="10" style="stroke: #5A5A8A; stroke-width: 1.0;"/><path d="M959.3594,27.2344 Q958.9219,27.4531 958.4219,27.5625 Q957.9375,27.6875 957.4063,27.6875 Q955.4844,27.6875 954.4688,26.4219 Q953.4688,25.1563 953.4688,22.7656 Q953.4688,20.375 954.4688,19.1094 Q955.4844,17.8438 957.4063,17.8438 Q957.9375,17.8438 958.4375,17.9688 Q958.9375,18.0781 959.3594,18.3125 L959.3594,20.3906 Q958.875,19.9531 958.4219,19.75 Q957.9688,19.5313 957.4844,19.5313 Q956.4688,19.5313 955.9375,20.3594 Q955.4063,21.1719 955.4063,22.7656 Q955.4063,24.375 955.9375,25.1875 Q956.4688,26 957.4844,26 Q957.9688,26 958.4219,25.7969 Q958.875,25.5938 959.3594,25.1406 L959.3594,27.2344 Z "/><text fill="#1A1A2E" font-family="sans-serif" font-size="13" lengthAdjust="spacingAndGlyphs" textLength="70" x="976.5" y="27.5005">Application</text><line style="stroke: #5A5A8A; stroke-width: 1.5;" x1="885" x2="1108" y1="38" y2="38"/><rect fill="none" height="6" style="stroke: #C82930; stroke-width: 1.0;" width="6" x="892" y="46"/><text fill="#2C2C4A" font-family="sans-serif" font-size="12" lengthAdjust="spacingAndGlyphs" textLength="117" x="903" y="53.1387">fs        : FileSystem</text><rect fill="none" height="6" style="stroke: #C82930; stroke-width: 1.0;" width="6" x="892" y="59.9688"/><text fill="#2C2C4A" font-family="sans-serif" font-size="12" lengthAdjust="spacingAndGlyphs" textLength="174" x="903" y="67.1074">factory   : ICommandFactory</text><rect fill="none" height="6" style="stroke: #C82930; stroke-width: 1.0;" width="6" x="892" y="73.9375"/><text fill="#2C2C4A" font-family="sans-serif" font-size="12" lengthAdjust="spacingAndGlyphs" textLength="200" x="903" y="81.0762">processor : CommandProcessor</text><line style="stroke: #5A5A8A; stroke-width: 1.0;" x1="885" x2="1108" y1="87.9063" y2="87.9063"/><ellipse cx="895" cy="98.9063" fill="#84BE84" rx="3" ry="3" style="stroke: #038048; stroke-width: 1.0;"/><text fill="#2C2C4A" font-family="sans-serif" font-size="12" lengthAdjust="spacingAndGlyphs" textLength="77" x="903" y="103.0449">start() : void</text><!--MD5=[5a52ab6d73c73aae688eb61bf30717f8]
class CommandProcessor--><rect fill="#F5F7FA" height="59.9688" id="CommandProcessor" rx="2" ry="2" style="stroke: #5A5A8A; stroke-width: 1.0;" width="160" x="673.5" y="171"/><ellipse cx="687.5" cy="186" fill="#ADD1B2" rx="10" ry="10" style="stroke: #5A5A8A; stroke-width: 1.0;"/><path d="M689.3594,190.2344 Q688.9219,190.4531 688.4219,190.5625 Q687.9375,190.6875 687.4063,190.6875 Q685.4844,190.6875 684.4688,189.4219 Q683.4688,188.1563 683.4688,185.7656 Q683.4688,183.375 684.4688,182.1094 Q685.4844,180.8438 687.4063,180.8438 Q687.9375,180.8438 688.4375,180.9688 Q688.9375,181.0781 689.3594,181.3125 L689.3594,183.3906 Q688.875,182.9531 688.4219,182.75 Q687.9688,182.5313 687.4844,182.5313 Q686.4688,182.5313 685.9375,183.3594 Q685.4063,184.1719 685.4063,185.7656 Q685.4063,187.375 685.9375,188.1875 Q686.4688,189 687.4844,189 Q687.9688,189 688.4219,188.7969 Q688.875,188.5938 689.3594,188.1406 L689.3594,190.2344 Z "/><text fill="#1A1A2E" font-family="sans-serif" font-size="13" lengthAdjust="spacingAndGlyphs" textLength="130" x="700.5" y="190.5005">CommandProcessor</text><line style="stroke: #5A5A8A; stroke-width: 1.5;" x1="674.5" x2="832.5" y1="201" y2="201"/><line style="stroke: #5A5A8A; stroke-width: 1.0;" x1="674.5" x2="832.5" y1="209" y2="209"/><ellipse cx="684.5" cy="220" fill="#84BE84" rx="3" ry="3" style="stroke: #038048; stroke-width: 1.0;"/><text fill="#2C2C4A" font-family="sans-serif" font-size="12" lengthAdjust="spacingAndGlyphs" textLength="68" x="692.5" y="224.1387">run() : void</text><!--MD5=[03dde570d1f63ddc28973906c3b7c3d9]
class ICommandFactory--><rect fill="#F5F7FA" height="70.2344" id="ICommandFactory" rx="2" ry="2" style="stroke: #5A5A8A; stroke-width: 1.0;" width="381" x="563" y="308"/><ellipse cx="690" cy="328.1328" fill="#B4A7E5" rx="10" ry="10" style="stroke: #5A5A8A; stroke-width: 1.0;"/><path d="M687.0938,324.8047 L687.0938,323.1484 L692.7344,323.1484 L692.7344,324.8047 L690.8438,324.8047 L690.8438,330.9766 L692.7344,330.9766 L692.7344,332.6328 L687.0938,332.6328 L687.0938,330.9766 L688.9844,330.9766 L688.9844,324.8047 L687.0938,324.8047 Z "/><text fill="#5555AA" font-family="sans-serif" font-size="13" font-style="italic" lengthAdjust="spacingAndGlyphs" textLength="72" x="732.5" y="325.0669">«interface»</text><text fill="#1A1A2E" font-family="sans-serif" font-size="13" font-style="italic" lengthAdjust="spacingAndGlyphs" textLength="119" x="709" y="340.1997">ICommandFactory</text><line style="stroke: #5A5A8A; stroke-width: 1.5;" x1="564" x2="943" y1="348.2656" y2="348.2656"/><line style="stroke: #5A5A8A; stroke-width: 1.0;" x1="564" x2="943" y1="356.2656" y2="356.2656"/><ellipse cx="574" cy="367.2656" fill="#84BE84" rx="3" ry="3" style="stroke: #038048; stroke-width: 1.0;"/><text fill="#2C2C4A" font-family="sans-serif" font-size="12" lengthAdjust="spacingAndGlyphs" textLength="356" x="582" y="371.4043">createCommand(name: string) : unique_ptr&lt;ICommand&gt;</text><!--MD5=[aab046a9a9f2c94054d86aed8f8ea70b]
class ConcreteCommandFactory--><rect fill="#F5F7FA" height="59.9688" id="ConcreteCommandFactory" rx="2" ry="2" style="stroke: #5A5A8A; stroke-width: 1.0;" width="381" x="616" y="439"/><ellipse cx="716.5" cy="454" fill="#ADD1B2" rx="10" ry="10" style="stroke: #5A5A8A; stroke-width: 1.0;"/><path d="M718.3594,458.2344 Q717.9219,458.4531 717.4219,458.5625 Q716.9375,458.6875 716.4063,458.6875 Q714.4844,458.6875 713.4688,457.4219 Q712.4688,456.1563 712.4688,453.7656 Q712.4688,451.375 713.4688,450.1094 Q714.4844,448.8438 716.4063,448.8438 Q716.9375,448.8438 717.4375,448.9688 Q717.9375,449.0781 718.3594,449.3125 L718.3594,451.3906 Q717.875,450.9531 717.4219,450.75 Q716.9688,450.5313 716.4844,450.5313 Q715.4688,450.5313 714.9375,451.3594 Q714.4063,452.1719 714.4063,453.7656 Q714.4063,455.375 714.9375,456.1875 Q715.4688,457 716.4844,457 Q716.9688,457 717.4219,456.7969 Q717.875,456.5938 718.3594,456.1406 L718.3594,458.2344 Z "/><text fill="#1A1A2E" font-family="sans-serif" font-size="13" lengthAdjust="spacingAndGlyphs" textLength="172" x="735.5" y="458.5005">ConcreteCommandFactory</text><line style="stroke: #5A5A8A; stroke-width: 1.5;" x1="617" x2="996" y1="469" y2="469"/><line style="stroke: #5A5A8A; stroke-width: 1.0;" x1="617" x2="996" y1="477" y2="477"/><ellipse cx="627" cy="488" fill="#84BE84" rx="3" ry="3" style="stroke: #038048; stroke-width: 1.0;"/><text fill="#2C2C4A" font-family="sans-serif" font-size="12" lengthAdjust="spacingAndGlyphs" textLength="356" x="635" y="492.1387">createCommand(name: string) : unique_ptr&lt;ICommand&gt;</text><!--MD5=[11008d568be52109e77f2977709dd853]
class ICommand--><rect fill="#F5F7FA" height="70.2344" id="ICommand" rx="2" ry="2" style="stroke: #5A5A8A; stroke-width: 1.0;" width="253" x="680" y="576"/><ellipse cx="767" cy="596.1328" fill="#B4A7E5" rx="10" ry="10" style="stroke: #5A5A8A; stroke-width: 1.0;"/><path d="M764.0938,592.8047 L764.0938,591.1484 L769.7344,591.1484 L769.7344,592.8047 L767.8438,592.8047 L767.8438,598.9766 L769.7344,598.9766 L769.7344,600.6328 L764.0938,600.6328 L764.0938,598.9766 L765.9844,598.9766 L765.9844,592.8047 L764.0938,592.8047 Z "/><text fill="#5555AA" font-family="sans-serif" font-size="13" font-style="italic" lengthAdjust="spacingAndGlyphs" textLength="72" x="785.5" y="593.0669">«interface»</text><text fill="#1A1A2E" font-family="sans-serif" font-size="13" font-style="italic" lengthAdjust="spacingAndGlyphs" textLength="71" x="786" y="608.1997">ICommand</text><line style="stroke: #5A5A8A; stroke-width: 1.5;" x1="681" x2="932" y1="616.2656" y2="616.2656"/><line style="stroke: #5A5A8A; stroke-width: 1.0;" x1="681" x2="932" y1="624.2656" y2="624.2656"/><ellipse cx="691" cy="635.2656" fill="#84BE84" rx="3" ry="3" style="stroke: #038048; stroke-width: 1.0;"/><text fill="#2C2C4A" font-family="sans-serif" font-size="12" lengthAdjust="spacingAndGlyphs" textLength="228" x="699" y="639.4043">execute(args: vector&lt;string&gt;) : void</text><!--MD5=[dc3ffc9b5645aadd9f984bcb832fbce2]
class ConcreteCommands--><rect fill="#F5F7FA" height="223.8906" id="ConcreteCommands" rx="2" ry="2" style="stroke: #5A5A8A; stroke-width: 1.0;" width="253" x="680" y="707"/><ellipse cx="736.5" cy="727.1328" fill="#ADD1B2" rx="10" ry="10" style="stroke: #5A5A8A; stroke-width: 1.0;"/><path d="M738.3594,731.3672 Q737.9219,731.5859 737.4219,731.6953 Q736.9375,731.8203 736.4063,731.8203 Q734.4844,731.8203 733.4688,730.5547 Q732.4688,729.2891 732.4688,726.8984 Q732.4688,724.5078 733.4688,723.2422 Q734.4844,721.9766 736.4063,721.9766 Q736.9375,721.9766 737.4375,722.1016 Q737.9375,722.2109 738.3594,722.4453 L738.3594,724.5234 Q737.875,724.0859 737.4219,723.8828 Q736.9688,723.6641 736.4844,723.6641 Q735.4688,723.6641 734.9375,724.4922 Q734.4063,725.3047 734.4063,726.8984 Q734.4063,728.5078 734.9375,729.3203 Q735.4688,730.1328 736.4844,730.1328 Q736.9688,730.1328 737.4219,729.9297 Q737.875,729.7266 738.3594,729.2734 L738.3594,731.3672 Z "/><text fill="#5555AA" font-family="sans-serif" font-size="13" font-style="italic" lengthAdjust="spacingAndGlyphs" textLength="53" x="795" y="724.0669">«group»</text><text fill="#1A1A2E" font-family="sans-serif" font-size="13" lengthAdjust="spacingAndGlyphs" textLength="132" x="755.5" y="739.1997">ConcreteCommands</text><line style="stroke: #5A5A8A; stroke-width: 1.5;" x1="681" x2="932" y1="747.2656" y2="747.2656"/><text fill="#2C2C4A" font-family="sans-serif" font-size="12" lengthAdjust="spacingAndGlyphs" textLength="95" x="686" y="762.4043">MkdirCommand</text><text fill="#2C2C4A" font-family="sans-serif" font-size="12" lengthAdjust="spacingAndGlyphs" textLength="100" x="686" y="776.373">TouchCommand</text><text fill="#2C2C4A" font-family="sans-serif" font-size="12" lengthAdjust="spacingAndGlyphs" textLength="75" x="686" y="790.3418">LsCommand</text><text fill="#2C2C4A" font-family="sans-serif" font-size="12" lengthAdjust="spacingAndGlyphs" textLength="78" x="686" y="804.3105">CdCommand</text><text fill="#2C2C4A" font-family="sans-serif" font-size="12" lengthAdjust="spacingAndGlyphs" textLength="87" x="686" y="818.2793">PwdCommand</text><text fill="#2C2C4A" font-family="sans-serif" font-size="12" lengthAdjust="spacingAndGlyphs" textLength="81" x="686" y="832.248">RmCommand</text><text fill="#2C2C4A" font-family="sans-serif" font-size="12" lengthAdjust="spacingAndGlyphs" textLength="78" x="686" y="846.2168">CpCommand</text><text fill="#2C2C4A" font-family="sans-serif" font-size="12" lengthAdjust="spacingAndGlyphs" textLength="83" x="686" y="860.1855">CatCommand</text><text fill="#2C2C4A" font-family="sans-serif" font-size="12" lengthAdjust="spacingAndGlyphs" textLength="93" x="686" y="874.1543">EchoCommand</text><text fill="#2C2C4A" font-family="sans-serif" font-size="12" lengthAdjust="spacingAndGlyphs" textLength="88" x="686" y="888.123">FindCommand</text><text fill="#2C2C4A" font-family="sans-serif" font-size="12" lengthAdjust="spacingAndGlyphs" textLength="78" x="686" y="902.0918">MvCommand</text><line style="stroke: #5A5A8A; stroke-width: 1.0;" x1="681" x2="932" y1="908.9219" y2="908.9219"/><ellipse cx="691" cy="919.9219" fill="#84BE84" rx="3" ry="3" style="stroke: #038048; stroke-width: 1.0;"/><text fill="#2C2C4A" font-family="sans-serif" font-size="12" lengthAdjust="spacingAndGlyphs" textLength="228" x="699" y="924.0605">execute(args: vector&lt;string&gt;) : void</text><!--MD5=[16c6990ddd535d1bcdf845f67bf0a53c]
class FileSystem--><rect fill="#F5F7FA" height="227.5938" id="FileSystem" rx="2" ry="2" style="stroke: #5A5A8A; stroke-width: 1.0;" width="326" x="643.5" y="1008"/><ellipse cx="767.5" cy="1023" fill="#ADD1B2" rx="10" ry="10" style="stroke: #5A5A8A; stroke-width: 1.0;"/><path d="M769.3594,1027.2344 Q768.9219,1027.4531 768.4219,1027.5625 Q767.9375,1027.6875 767.4063,1027.6875 Q765.4844,1027.6875 764.4688,1026.4219 Q763.4688,1025.1563 763.4688,1022.7656 Q763.4688,1020.375 764.4688,1019.1094 Q765.4844,1017.8438 767.4063,1017.8438 Q767.9375,1017.8438 768.4375,1017.9688 Q768.9375,1018.0781 769.3594,1018.3125 L769.3594,1020.3906 Q768.875,1019.9531 768.4219,1019.75 Q767.9688,1019.5313 767.4844,1019.5313 Q766.4688,1019.5313 765.9375,1020.3594 Q765.4063,1021.1719 765.4063,1022.7656 Q765.4063,1024.375 765.9375,1025.1875 Q766.4688,1026 767.4844,1026 Q767.9688,1026 768.4219,1025.7969 Q768.875,1025.5938 769.3594,1025.1406 L769.3594,1027.2344 Z "/><text fill="#1A1A2E" font-family="sans-serif" font-size="13" lengthAdjust="spacingAndGlyphs" textLength="70" x="786.5" y="1027.5005">FileSystem</text><line style="stroke: #5A5A8A; stroke-width: 1.5;" x1="644.5" x2="968.5" y1="1038" y2="1038"/><rect fill="none" height="6" style="stroke: #C82930; stroke-width: 1.0;" width="6" x="651.5" y="1046"/><text fill="#2C2C4A" font-family="sans-serif" font-size="12" lengthAdjust="spacingAndGlyphs" textLength="182" x="662.5" y="1053.1387">root : shared_ptr&lt;Directory&gt;</text><rect fill="none" height="6" style="stroke: #C82930; stroke-width: 1.0;" width="6" x="651.5" y="1059.9688"/><text fill="#2C2C4A" font-family="sans-serif" font-size="12" lengthAdjust="spacingAndGlyphs" textLength="184" x="662.5" y="1067.1074">cwd  : shared_ptr&lt;Directory&gt;</text><line style="stroke: #5A5A8A; stroke-width: 1.0;" x1="644.5" x2="968.5" y1="1073.9375" y2="1073.9375"/><ellipse cx="654.5" cy="1084.9375" fill="#84BE84" rx="3" ry="3" style="stroke: #038048; stroke-width: 1.0;"/><text fill="#2C2C4A" font-family="sans-serif" font-size="12" lengthAdjust="spacingAndGlyphs" textLength="96" x="662.5" y="1089.0762">initialize() : void</text><ellipse cx="654.5" cy="1098.9063" fill="#84BE84" rx="3" ry="3" style="stroke: #038048; stroke-width: 1.0;"/><text fill="#2C2C4A" font-family="sans-serif" font-size="12" lengthAdjust="spacingAndGlyphs" textLength="180" x="662.5" y="1103.0449">createDir(path: string) : bool</text><ellipse cx="654.5" cy="1112.875" fill="#84BE84" rx="3" ry="3" style="stroke: #038048; stroke-width: 1.0;"/><text fill="#2C2C4A" font-family="sans-serif" font-size="12" lengthAdjust="spacingAndGlyphs" textLength="184" x="662.5" y="1117.0137">createFile(path: string) : bool</text><ellipse cx="654.5" cy="1126.8438" fill="#84BE84" rx="3" ry="3" style="stroke: #038048; stroke-width: 1.0;"/><text fill="#2C2C4A" font-family="sans-serif" font-size="12" lengthAdjust="spacingAndGlyphs" textLength="189" x="662.5" y="1130.9824">removeFile(path: string) : bool</text><ellipse cx="654.5" cy="1140.8125" fill="#84BE84" rx="3" ry="3" style="stroke: #038048; stroke-width: 1.0;"/><text fill="#2C2C4A" font-family="sans-serif" font-size="12" lengthAdjust="spacingAndGlyphs" textLength="185" x="662.5" y="1144.9512">removeDir(path: string) : bool</text><ellipse cx="654.5" cy="1154.7813" fill="#84BE84" rx="3" ry="3" style="stroke: #038048; stroke-width: 1.0;"/><text fill="#2C2C4A" font-family="sans-serif" font-size="12" lengthAdjust="spacingAndGlyphs" textLength="186" x="662.5" y="1158.9199">changeDir(path: string) : bool</text><ellipse cx="654.5" cy="1168.75" fill="#84BE84" rx="3" ry="3" style="stroke: #038048; stroke-width: 1.0;"/><text fill="#2C2C4A" font-family="sans-serif" font-size="12" lengthAdjust="spacingAndGlyphs" textLength="155" x="662.5" y="1172.8887">getCurrentPath() : string</text><ellipse cx="654.5" cy="1182.7188" fill="#84BE84" rx="3" ry="3" style="stroke: #038048; stroke-width: 1.0;"/><text fill="#2C2C4A" font-family="sans-serif" font-size="12" lengthAdjust="spacingAndGlyphs" textLength="283" x="662.5" y="1186.8574">rename(path: string, newName: string) : bool</text><ellipse cx="654.5" cy="1196.6875" fill="#84BE84" rx="3" ry="3" style="stroke: #038048; stroke-width: 1.0;"/><text fill="#2C2C4A" font-family="sans-serif" font-size="12" lengthAdjust="spacingAndGlyphs" textLength="217" x="662.5" y="1200.8262">move(src: string, dst: string) : bool</text><ellipse cx="654.5" cy="1210.6563" fill="#84BE84" rx="3" ry="3" style="stroke: #038048; stroke-width: 1.0;"/><text fill="#2C2C4A" font-family="sans-serif" font-size="12" lengthAdjust="spacingAndGlyphs" textLength="270" x="662.5" y="1214.7949">resolveFile(path: string) : shared_ptr&lt;File&gt;</text><ellipse cx="654.5" cy="1224.625" fill="#84BE84" rx="3" ry="3" style="stroke: #038048; stroke-width: 1.0;"/><text fill="#2C2C4A" font-family="sans-serif" font-size="12" lengthAdjust="spacingAndGlyphs" textLength="301" x="662.5" y="1228.7637">resolveDir(path: string) : shared_ptr&lt;Directory&gt;</text><!--MD5=[946cf32c4909f60ec87eb8fd56ac8dfa]
class FileSystemComponent--><rect fill="#F5F7FA" height="154.0469" id="FileSystemComponent" rx="2" ry="2" style="stroke: #5A5A8A; stroke-width: 1.0;" width="336" x="472.5" y="1313"/><ellipse cx="564" cy="1333.1328" fill="#B4A7E5" rx="10" ry="10" style="stroke: #5A5A8A; stroke-width: 1.0;"/><path d="M561.0938,1329.8047 L561.0938,1328.1484 L566.7344,1328.1484 L566.7344,1329.8047 L564.8438,1329.8047 L564.8438,1335.9766 L566.7344,1335.9766 L566.7344,1337.6328 L561.0938,1337.6328 L561.0938,1335.9766 L562.9844,1335.9766 L562.9844,1329.8047 L561.0938,1329.8047 Z "/><text fill="#5555AA" font-family="sans-serif" font-size="13" font-style="italic" lengthAdjust="spacingAndGlyphs" textLength="72" x="619.5" y="1330.0669">«interface»</text><text fill="#1A1A2E" font-family="sans-serif" font-size="13" font-style="italic" lengthAdjust="spacingAndGlyphs" textLength="145" x="583" y="1345.1997">FileSystemComponent</text><line style="stroke: #5A5A8A; stroke-width: 1.5;" x1="473.5" x2="807.5" y1="1353.2656" y2="1353.2656"/><line style="stroke: #5A5A8A; stroke-width: 1.0;" x1="473.5" x2="807.5" y1="1361.2656" y2="1361.2656"/><ellipse cx="483.5" cy="1372.2656" fill="#84BE84" rx="3" ry="3" style="stroke: #038048; stroke-width: 1.0;"/><text fill="#2C2C4A" font-family="sans-serif" font-size="12" lengthAdjust="spacingAndGlyphs" textLength="115" x="491.5" y="1376.4043">getName() : string</text><ellipse cx="483.5" cy="1386.2344" fill="#84BE84" rx="3" ry="3" style="stroke: #038048; stroke-width: 1.0;"/><text fill="#2C2C4A" font-family="sans-serif" font-size="12" lengthAdjust="spacingAndGlyphs" textLength="101" x="491.5" y="1390.373">getSize() : size_t</text><ellipse cx="483.5" cy="1400.2031" fill="#84BE84" rx="3" ry="3" style="stroke: #038048; stroke-width: 1.0;"/><text fill="#2C2C4A" font-family="sans-serif" font-size="12" lengthAdjust="spacingAndGlyphs" textLength="311" x="491.5" y="1404.3418">getComponentType() : FileSystemComponentType</text><ellipse cx="483.5" cy="1414.1719" fill="#84BE84" rx="3" ry="3" style="stroke: #038048; stroke-width: 1.0;"/><text fill="#2C2C4A" font-family="sans-serif" font-size="12" lengthAdjust="spacingAndGlyphs" textLength="163" x="491.5" y="1418.3105">getCreationTime() : time_t</text><ellipse cx="483.5" cy="1428.1406" fill="#84BE84" rx="3" ry="3" style="stroke: #038048; stroke-width: 1.0;"/><text fill="#2C2C4A" font-family="sans-serif" font-size="12" lengthAdjust="spacingAndGlyphs" textLength="185" x="491.5" y="1432.2793">getModificationTime() : time_t</text><ellipse cx="483.5" cy="1442.1094" fill="#84BE84" rx="3" ry="3" style="stroke: #038048; stroke-width: 1.0;"/><text fill="#2C2C4A" font-family="sans-serif" font-size="12" lengthAdjust="spacingAndGlyphs" textLength="182" x="491.5" y="1446.248">setName(name: string) : void</text><ellipse cx="483.5" cy="1456.0781" fill="#84BE84" rx="3" ry="3" style="stroke: #038048; stroke-width: 1.0;"/><text fill="#2C2C4A" font-family="sans-serif" font-size="12" lengthAdjust="spacingAndGlyphs" textLength="196" x="491.5" y="1460.2168">updateModificationTime() : void</text><!--MD5=[9bd2b2bc45261200a440e1ecb7c43192]
class Directory--><rect fill="#F5F7FA" height="297.4375" id="Directory" rx="2" ry="2" style="stroke: #5A5A8A; stroke-width: 1.0;" width="431" x="6" y="1544"/><ellipse cx="188.5" cy="1559" fill="#ADD1B2" rx="10" ry="10" style="stroke: #5A5A8A; stroke-width: 1.0;"/><path d="M190.3594,1563.2344 Q189.9219,1563.4531 189.4219,1563.5625 Q188.9375,1563.6875 188.4063,1563.6875 Q186.4844,1563.6875 185.4688,1562.4219 Q184.4688,1561.1563 184.4688,1558.7656 Q184.4688,1556.375 185.4688,1555.1094 Q186.4844,1553.8438 188.4063,1553.8438 Q188.9375,1553.8438 189.4375,1553.9688 Q189.9375,1554.0781 190.3594,1554.3125 L190.3594,1556.3906 Q189.875,1555.9531 189.4219,1555.75 Q188.9688,1555.5313 188.4844,1555.5313 Q187.4688,1555.5313 186.9375,1556.3594 Q186.4063,1557.1719 186.4063,1558.7656 Q186.4063,1560.375 186.9375,1561.1875 Q187.4688,1562 188.4844,1562 Q188.9688,1562 189.4219,1561.7969 Q189.875,1561.5938 190.3594,1561.1406 L190.3594,1563.2344 Z "/><text fill="#1A1A2E" font-family="sans-serif" font-size="13" lengthAdjust="spacingAndGlyphs" textLength="58" x="207.5" y="1563.5005">Directory</text><line style="stroke: #5A5A8A; stroke-width: 1.5;" x1="7" x2="436" y1="1574" y2="1574"/><rect fill="none" height="6" style="stroke: #C82930; stroke-width: 1.0;" width="6" x="14" y="1582"/><text fill="#2C2C4A" font-family="sans-serif" font-size="12" lengthAdjust="spacingAndGlyphs" textLength="131" x="25" y="1589.1387">name             : string</text><rect fill="none" height="6" style="stroke: #C82930; stroke-width: 1.0;" width="6" x="14" y="1595.9688"/><text fill="#2C2C4A" font-family="sans-serif" font-size="12" lengthAdjust="spacingAndGlyphs" textLength="147" x="25" y="1603.1074">creationTime     : time_t</text><rect fill="none" height="6" style="stroke: #C82930; stroke-width: 1.0;" width="6" x="14" y="1609.9375"/><text fill="#2C2C4A" font-family="sans-serif" font-size="12" lengthAdjust="spacingAndGlyphs" textLength="155" x="25" y="1617.0762">modificationTime : time_t</text><rect fill="none" height="6" style="stroke: #C82930; stroke-width: 1.0;" width="6" x="14" y="1623.9063"/><text fill="#2C2C4A" font-family="sans-serif" font-size="12" lengthAdjust="spacingAndGlyphs" textLength="379" x="25" y="1631.0449">children         : vector&lt;shared_ptr&lt;FileSystemComponent&gt;&gt;</text><rect fill="none" height="6" style="stroke: #C82930; stroke-width: 1.0;" width="6" x="14" y="1637.875"/><text fill="#2C2C4A" font-family="sans-serif" font-size="12" lengthAdjust="spacingAndGlyphs" textLength="226" x="25" y="1645.0137">parent           : weak_ptr&lt;Directory&gt;</text><line style="stroke: #5A5A8A; stroke-width: 1.0;" x1="7" x2="436" y1="1651.8438" y2="1651.8438"/><ellipse cx="17" cy="1662.8438" fill="#84BE84" rx="3" ry="3" style="stroke: #038048; stroke-width: 1.0;"/><text fill="#2C2C4A" font-family="sans-serif" font-size="12" lengthAdjust="spacingAndGlyphs" textLength="115" x="25" y="1666.9824">getName() : string</text><ellipse cx="17" cy="1676.8125" fill="#84BE84" rx="3" ry="3" style="stroke: #038048; stroke-width: 1.0;"/><text fill="#2C2C4A" font-family="sans-serif" font-size="12" lengthAdjust="spacingAndGlyphs" textLength="101" x="25" y="1680.9512">getSize() : size_t</text><ellipse cx="17" cy="1690.7813" fill="#84BE84" rx="3" ry="3" style="stroke: #038048; stroke-width: 1.0;"/><text fill="#2C2C4A" font-family="sans-serif" font-size="12" lengthAdjust="spacingAndGlyphs" textLength="311" x="25" y="1694.9199">getComponentType() : FileSystemComponentType</text><ellipse cx="17" cy="1704.75" fill="#84BE84" rx="3" ry="3" style="stroke: #038048; stroke-width: 1.0;"/><text fill="#2C2C4A" font-family="sans-serif" font-size="12" lengthAdjust="spacingAndGlyphs" textLength="163" x="25" y="1708.8887">getCreationTime() : time_t</text><ellipse cx="17" cy="1718.7188" fill="#84BE84" rx="3" ry="3" style="stroke: #038048; stroke-width: 1.0;"/><text fill="#2C2C4A" font-family="sans-serif" font-size="12" lengthAdjust="spacingAndGlyphs" textLength="185" x="25" y="1722.8574">getModificationTime() : time_t</text><ellipse cx="17" cy="1732.6875" fill="#84BE84" rx="3" ry="3" style="stroke: #038048; stroke-width: 1.0;"/><text fill="#2C2C4A" font-family="sans-serif" font-size="12" lengthAdjust="spacingAndGlyphs" textLength="182" x="25" y="1736.8262">setName(name: string) : void</text><ellipse cx="17" cy="1746.6563" fill="#84BE84" rx="3" ry="3" style="stroke: #038048; stroke-width: 1.0;"/><text fill="#2C2C4A" font-family="sans-serif" font-size="12" lengthAdjust="spacingAndGlyphs" textLength="196" x="25" y="1750.7949">updateModificationTime() : void</text><ellipse cx="17" cy="1760.625" fill="#84BE84" rx="3" ry="3" style="stroke: #038048; stroke-width: 1.0;"/><text fill="#2C2C4A" font-family="sans-serif" font-size="12" lengthAdjust="spacingAndGlyphs" textLength="217" x="25" y="1764.7637">getParent() : weak_ptr&lt;Directory&gt;</text><ellipse cx="17" cy="1774.5938" fill="#84BE84" rx="3" ry="3" style="stroke: #038048; stroke-width: 1.0;"/><text fill="#2C2C4A" font-family="sans-serif" font-size="12" lengthAdjust="spacingAndGlyphs" textLength="406" x="25" y="1778.7324">addChild(component: shared_ptr&lt;FileSystemComponent&gt;) : void</text><ellipse cx="17" cy="1788.5625" fill="#84BE84" rx="3" ry="3" style="stroke: #038048; stroke-width: 1.0;"/><text fill="#2C2C4A" font-family="sans-serif" font-size="12" lengthAdjust="spacingAndGlyphs" textLength="202" x="25" y="1792.7012">removeChild(name: string) : void</text><ellipse cx="17" cy="1802.5313" fill="#84BE84" rx="3" ry="3" style="stroke: #038048; stroke-width: 1.0;"/><text fill="#2C2C4A" font-family="sans-serif" font-size="12" lengthAdjust="spacingAndGlyphs" textLength="181" x="25" y="1806.6699">hasChild(name: string) : bool</text><ellipse cx="17" cy="1816.5" fill="#84BE84" rx="3" ry="3" style="stroke: #038048; stroke-width: 1.0;"/><text fill="#2C2C4A" font-family="sans-serif" font-size="12" lengthAdjust="spacingAndGlyphs" textLength="379" x="25" y="1820.6387">getChildren() : vector&lt;shared_ptr&lt;FileSystemComponent&gt;&gt;</text><ellipse cx="17" cy="1830.4688" fill="#84BE84" rx="3" ry="3" style="stroke: #038048; stroke-width: 1.0;"/><text fill="#2C2C4A" font-family="sans-serif" font-size="12" lengthAdjust="spacingAndGlyphs" textLength="380" x="25" y="1834.6074">findChild(name: string) : shared_ptr&lt;FileSystemComponent&gt;</text><!--MD5=[63dd87716ef75a5caca5dce59428e94a]
class File--><rect fill="#F5F7FA" height="255.5313" id="File" rx="2" ry="2" style="stroke: #5A5A8A; stroke-width: 1.0;" width="336" x="472.5" y="1564.5"/><ellipse cx="626" cy="1579.5" fill="#ADD1B2" rx="10" ry="10" style="stroke: #5A5A8A; stroke-width: 1.0;"/><path d="M627.8594,1583.7344 Q627.4219,1583.9531 626.9219,1584.0625 Q626.4375,1584.1875 625.9063,1584.1875 Q623.9844,1584.1875 622.9688,1582.9219 Q621.9688,1581.6563 621.9688,1579.2656 Q621.9688,1576.875 622.9688,1575.6094 Q623.9844,1574.3438 625.9063,1574.3438 Q626.4375,1574.3438 626.9375,1574.4688 Q627.4375,1574.5781 627.8594,1574.8125 L627.8594,1576.8906 Q627.375,1576.4531 626.9219,1576.25 Q626.4688,1576.0313 625.9844,1576.0313 Q624.9688,1576.0313 624.4375,1576.8594 Q623.9063,1577.6719 623.9063,1579.2656 Q623.9063,1580.875 624.4375,1581.6875 Q624.9688,1582.5 625.9844,1582.5 Q626.4688,1582.5 626.9219,1582.2969 Q627.375,1582.0938 627.8594,1581.6406 L627.8594,1583.7344 Z "/><text fill="#1A1A2E" font-family="sans-serif" font-size="13" lengthAdjust="spacingAndGlyphs" textLength="21" x="645" y="1584.0005">File</text><line style="stroke: #5A5A8A; stroke-width: 1.5;" x1="473.5" x2="807.5" y1="1594.5" y2="1594.5"/><rect fill="none" height="6" style="stroke: #C82930; stroke-width: 1.0;" width="6" x="480.5" y="1602.5"/><text fill="#2C2C4A" font-family="sans-serif" font-size="12" lengthAdjust="spacingAndGlyphs" textLength="131" x="491.5" y="1609.6387">name             : string</text><rect fill="none" height="6" style="stroke: #C82930; stroke-width: 1.0;" width="6" x="480.5" y="1616.4688"/><text fill="#2C2C4A" font-family="sans-serif" font-size="12" lengthAdjust="spacingAndGlyphs" textLength="133" x="491.5" y="1623.6074">content          : string</text><rect fill="none" height="6" style="stroke: #C82930; stroke-width: 1.0;" width="6" x="480.5" y="1630.4375"/><text fill="#2C2C4A" font-family="sans-serif" font-size="12" lengthAdjust="spacingAndGlyphs" textLength="147" x="491.5" y="1637.5762">creationTime     : time_t</text><rect fill="none" height="6" style="stroke: #C82930; stroke-width: 1.0;" width="6" x="480.5" y="1644.4063"/><text fill="#2C2C4A" font-family="sans-serif" font-size="12" lengthAdjust="spacingAndGlyphs" textLength="155" x="491.5" y="1651.5449">modificationTime : time_t</text><line style="stroke: #5A5A8A; stroke-width: 1.0;" x1="473.5" x2="807.5" y1="1658.375" y2="1658.375"/><ellipse cx="483.5" cy="1669.375" fill="#84BE84" rx="3" ry="3" style="stroke: #038048; stroke-width: 1.0;"/><text fill="#2C2C4A" font-family="sans-serif" font-size="12" lengthAdjust="spacingAndGlyphs" textLength="115" x="491.5" y="1673.5137">getName() : string</text><ellipse cx="483.5" cy="1683.3438" fill="#84BE84" rx="3" ry="3" style="stroke: #038048; stroke-width: 1.0;"/><text fill="#2C2C4A" font-family="sans-serif" font-size="12" lengthAdjust="spacingAndGlyphs" textLength="101" x="491.5" y="1687.4824">getSize() : size_t</text><ellipse cx="483.5" cy="1697.3125" fill="#84BE84" rx="3" ry="3" style="stroke: #038048; stroke-width: 1.0;"/><text fill="#2C2C4A" font-family="sans-serif" font-size="12" lengthAdjust="spacingAndGlyphs" textLength="311" x="491.5" y="1701.4512">getComponentType() : FileSystemComponentType</text><ellipse cx="483.5" cy="1711.2813" fill="#84BE84" rx="3" ry="3" style="stroke: #038048; stroke-width: 1.0;"/><text fill="#2C2C4A" font-family="sans-serif" font-size="12" lengthAdjust="spacingAndGlyphs" textLength="163" x="491.5" y="1715.4199">getCreationTime() : time_t</text><ellipse cx="483.5" cy="1725.25" fill="#84BE84" rx="3" ry="3" style="stroke: #038048; stroke-width: 1.0;"/><text fill="#2C2C4A" font-family="sans-serif" font-size="12" lengthAdjust="spacingAndGlyphs" textLength="185" x="491.5" y="1729.3887">getModificationTime() : time_t</text><ellipse cx="483.5" cy="1739.2188" fill="#84BE84" rx="3" ry="3" style="stroke: #038048; stroke-width: 1.0;"/><text fill="#2C2C4A" font-family="sans-serif" font-size="12" lengthAdjust="spacingAndGlyphs" textLength="182" x="491.5" y="1743.3574">setName(name: string) : void</text><ellipse cx="483.5" cy="1753.1875" fill="#84BE84" rx="3" ry="3" style="stroke: #038048; stroke-width: 1.0;"/><text fill="#2C2C4A" font-family="sans-serif" font-size="12" lengthAdjust="spacingAndGlyphs" textLength="196" x="491.5" y="1757.3262">updateModificationTime() : void</text><ellipse cx="483.5" cy="1767.1563" fill="#84BE84" rx="3" ry="3" style="stroke: #038048; stroke-width: 1.0;"/><text fill="#2C2C4A" font-family="sans-serif" font-size="12" lengthAdjust="spacingAndGlyphs" textLength="129" x="491.5" y="1771.2949">getContent() : string</text><ellipse cx="483.5" cy="1781.125" fill="#84BE84" rx="3" ry="3" style="stroke: #038048; stroke-width: 1.0;"/><text fill="#2C2C4A" font-family="sans-serif" font-size="12" lengthAdjust="spacingAndGlyphs" textLength="210" x="491.5" y="1785.2637">setContent(content: string) : void</text><ellipse cx="483.5" cy="1795.0938" fill="#84BE84" rx="3" ry="3" style="stroke: #038048; stroke-width: 1.0;"/><text fill="#2C2C4A" font-family="sans-serif" font-size="12" lengthAdjust="spacingAndGlyphs" textLength="238" x="491.5" y="1799.2324">appendContent(content: string) : void</text><ellipse cx="483.5" cy="1809.0625" fill="#84BE84" rx="3" ry="3" style="stroke: #038048; stroke-width: 1.0;"/><text fill="#2C2C4A" font-family="sans-serif" font-size="12" lengthAdjust="spacingAndGlyphs" textLength="283" x="491.5" y="1813.2012">searchLines(pattern: string) : vector&lt;string&gt;</text><!--MD5=[cc2e1bceaf7f2abf982a4e9b6f0da48a]
class IFileSystemPersistence--><rect fill="#F5F7FA" height="84.2031" id="IFileSystemPersistence" rx="2" ry="2" style="stroke: #5A5A8A; stroke-width: 1.0;" width="256" x="843.5" y="1348"/><ellipse cx="893.5" cy="1368.1328" fill="#B4A7E5" rx="10" ry="10" style="stroke: #5A5A8A; stroke-width: 1.0;"/><path d="M890.5938,1364.8047 L890.5938,1363.1484 L896.2344,1363.1484 L896.2344,1364.8047 L894.3438,1364.8047 L894.3438,1370.9766 L896.2344,1370.9766 L896.2344,1372.6328 L890.5938,1372.6328 L890.5938,1370.9766 L892.4844,1370.9766 L892.4844,1364.8047 L890.5938,1364.8047 Z "/><text fill="#5555AA" font-family="sans-serif" font-size="13" font-style="italic" lengthAdjust="spacingAndGlyphs" textLength="72" x="950.5" y="1365.0669">«interface»</text><text fill="#1A1A2E" font-family="sans-serif" font-size="13" font-style="italic" lengthAdjust="spacingAndGlyphs" textLength="148" x="912.5" y="1380.1997">IFileSystemPersistence</text><line style="stroke: #5A5A8A; stroke-width: 1.5;" x1="844.5" x2="1098.5" y1="1388.2656" y2="1388.2656"/><line style="stroke: #5A5A8A; stroke-width: 1.0;" x1="844.5" x2="1098.5" y1="1396.2656" y2="1396.2656"/><ellipse cx="854.5" cy="1407.2656" fill="#84BE84" rx="3" ry="3" style="stroke: #038048; stroke-width: 1.0;"/><text fill="#2C2C4A" font-family="sans-serif" font-size="12" lengthAdjust="spacingAndGlyphs" textLength="231" x="862.5" y="1411.4043">serialize(fs: const FileSystem&amp;) : void</text><ellipse cx="854.5" cy="1421.2344" fill="#84BE84" rx="3" ry="3" style="stroke: #038048; stroke-width: 1.0;"/><text fill="#2C2C4A" font-family="sans-serif" font-size="12" lengthAdjust="spacingAndGlyphs" textLength="208" x="862.5" y="1425.373">deserialize(fs: FileSystem&amp;) : void</text><!--MD5=[826f10b3052f2a87ad36c547619e910b]
class FileSystemComponentType--><rect fill="#F5F7FA" height="73.9375" id="FileSystemComponentType" rx="2" ry="2" style="stroke: #5A5A8A; stroke-width: 1.0;" width="205" x="843" y="1655.5"/><ellipse cx="857" cy="1670.5" fill="#EB937F" rx="10" ry="10" style="stroke: #5A5A8A; stroke-width: 1.0;"/><path d="M859.4688,1675 L853.5625,1675 L853.5625,1665.5156 L859.4688,1665.5156 L859.4688,1667.1719 L855.4375,1667.1719 L855.4375,1669.2188 L859.0938,1669.2188 L859.0938,1670.875 L855.4375,1670.875 L855.4375,1673.3438 L859.4688,1673.3438 L859.4688,1675 Z "/><text fill="#1A1A2E" font-family="sans-serif" font-size="13" lengthAdjust="spacingAndGlyphs" textLength="175" x="870" y="1675.0005">FileSystemComponentType</text><line style="stroke: #5A5A8A; stroke-width: 1.0;" x1="844" x2="1047" y1="1685.5" y2="1685.5"/><text fill="#2C2C4A" font-family="sans-serif" font-size="12" lengthAdjust="spacingAndGlyphs" textLength="24" x="849" y="1700.6387">FILE</text><text fill="#2C2C4A" font-family="sans-serif" font-size="12" lengthAdjust="spacingAndGlyphs" textLength="67" x="849" y="1714.6074">DIRECTORY</text><line style="stroke: #5A5A8A; stroke-width: 1.0;" x1="844" x2="1047" y1="1721.4375" y2="1721.4375"/><!--MD5=[68b8288e588ae5d309740effcb37ef92]
reverse link Application to FileSystem--><path d="M1048.25,123.27 C1048.25,123.27 1048.25,1122 1048.25,1122 C1048.25,1122 1013.18,1122 969.76,1122 " fill="none" id="Application&lt;-FileSystem" style="stroke: #4A4A7A; stroke-width: 1.0;"/><polygon fill="#4A4A7A" points="1048.25,110.27,1044.25,116.27,1048.25,122.27,1052.25,116.27,1048.25,110.27" style="stroke: #4A4A7A; stroke-width: 1.0;"/><!--MD5=[42c0a31e6eba3b6efaaefe2b16427939]
reverse link Application to ConcreteCommandFactory--><path d="M970.5,123.1 C970.5,123.1 970.5,438.89 970.5,438.89 " fill="none" id="Application&lt;-ConcreteCommandFactory" style="stroke: #4A4A7A; stroke-width: 1.0;"/><polygon fill="#4A4A7A" points="970.5,110.1,966.5,116.1,970.5,122.1,974.5,116.1,970.5,110.1" style="stroke: #4A4A7A; stroke-width: 1.0;"/><!--MD5=[9801221283f91076fd723ee3a7267a50]
reverse link Application to CommandProcessor--><path d="M914,123.27 C914,123.27 914,201 914,201 C914,201 873.88,201 833.75,201 " fill="none" id="Application&lt;-CommandProcessor" style="stroke: #4A4A7A; stroke-width: 1.0;"/><polygon fill="#4A4A7A" points="914,110.27,910,116.27,914,122.27,918,116.27,914,110.27" style="stroke: #4A4A7A; stroke-width: 1.0;"/><!--MD5=[eb8660f43c769dba21163924b306a486]
link CommandProcessor to FileSystem--><path d="M673.36,201 C605.01,201 517.75,201 517.75,201 C517.75,201 517.75,1122 517.75,1122 C517.75,1122 638.14,1122 638.14,1122 " fill="none" id="CommandProcessor-&gt;FileSystem" style="stroke: #4A4A7A; stroke-width: 1.0; stroke-dasharray: 7.0,7.0;"/><polygon fill="#4A4A7A" points="643.14,1122,634.14,1118,638.14,1122,634.14,1126,643.14,1122" style="stroke: #4A4A7A; stroke-width: 1.0;"/><text fill="#000000" font-family="sans-serif" font-size="13" lengthAdjust="spacingAndGlyphs" textLength="46" x="511.5" y="542.0669">«uses»</text><!--MD5=[cfeed5516f5f559e94c3f7f2e36f8a1e]
link CommandProcessor to ICommandFactory--><path d="M753.5,231.11 C753.5,231.11 753.5,302.92 753.5,302.92 " fill="none" id="CommandProcessor-&gt;ICommandFactory" style="stroke: #4A4A7A; stroke-width: 1.0; stroke-dasharray: 7.0,7.0;"/><polygon fill="#4A4A7A" points="753.5,307.92,757.5,298.92,753.5,302.92,749.5,298.92,753.5,307.92" style="stroke: #4A4A7A; stroke-width: 1.0;"/><text fill="#000000" font-family="sans-serif" font-size="13" lengthAdjust="spacingAndGlyphs" textLength="46" x="754.5" y="274.0669">«uses»</text><!--MD5=[9d4b181f4b16de6ba70e0723f5fffe58]
reverse link ICommandFactory to ConcreteCommandFactory--><path d="M780,398.1 C780,398.1 780,438.79 780,438.79 " fill="none" id="ICommandFactory&lt;-ConcreteCommandFactory" style="stroke: #4A4A7A; stroke-width: 1.0; stroke-dasharray: 7.0,7.0;"/><polygon fill="none" points="773,398.1,780,378.1,787,398.1,773,398.1" style="stroke: #4A4A7A; stroke-width: 1.0;"/><!--MD5=[cf5034efba62c1ba00b36b75e1a5e7eb]
link ConcreteCommandFactory to ICommand--><path d="M806.5,499.11 C806.5,499.11 806.5,570.92 806.5,570.92 " fill="none" id="ConcreteCommandFactory-&gt;ICommand" style="stroke: #4A4A7A; stroke-width: 1.0; stroke-dasharray: 7.0,7.0;"/><polygon fill="#4A4A7A" points="806.5,575.92,810.5,566.92,806.5,570.92,802.5,566.92,806.5,575.92" style="stroke: #4A4A7A; stroke-width: 1.0;"/><text fill="#000000" font-family="sans-serif" font-size="13" lengthAdjust="spacingAndGlyphs" textLength="64" x="807.5" y="542.0669">«creates»</text><!--MD5=[2005055d8e35d596c0888450f834a13a]
reverse link ICommand to ConcreteCommands--><path d="M806.5,666.28 C806.5,666.28 806.5,706.8 806.5,706.8 " fill="none" id="ICommand&lt;-ConcreteCommands" style="stroke: #4A4A7A; stroke-width: 1.0; stroke-dasharray: 7.0,7.0;"/><polygon fill="none" points="799.5,666.28,806.5,646.28,813.5,666.28,799.5,666.28" style="stroke: #4A4A7A; stroke-width: 1.0;"/><!--MD5=[910395a46d2dc79edefc4ad323b03e1a]
link ConcreteCommands to FileSystem--><path d="M806.5,931.4 C806.5,931.4 806.5,1002.76 806.5,1002.76 " fill="none" id="ConcreteCommands-&gt;FileSystem" style="stroke: #4A4A7A; stroke-width: 1.0; stroke-dasharray: 7.0,7.0;"/><polygon fill="#4A4A7A" points="806.5,1007.76,810.5,998.76,806.5,1002.76,802.5,998.76,806.5,1007.76" style="stroke: #4A4A7A; stroke-width: 1.0;"/><text fill="#000000" font-family="sans-serif" font-size="13" lengthAdjust="spacingAndGlyphs" textLength="46" x="807.5" y="974.0669">«uses»</text><!--MD5=[54165aaa8ddc348e9f6caf1a9be03b27]
reverse link FileSystem to FileSystemComponent--><path d="M726,1249.04 C726,1249.04 726,1312.89 726,1312.89 " fill="none" id="FileSystem&lt;-FileSystemComponent" style="stroke: #4A4A7A; stroke-width: 1.0;"/><polygon fill="#FFFFFF" points="726,1236.04,722,1242.04,726,1248.04,730,1242.04,726,1236.04" style="stroke: #4A4A7A; stroke-width: 1.0;"/><text fill="#000000" font-family="sans-serif" font-size="13" lengthAdjust="spacingAndGlyphs" textLength="76" x="748.5" y="1279.0669">«manages»</text><!--MD5=[bf8d16a5d2f4149761ea6190936a5b0c]
link FileSystem to IFileSystemPersistence--><path d="M906.5,1236.04 C906.5,1236.04 906.5,1342.74 906.5,1342.74 " fill="none" id="FileSystem-&gt;IFileSystemPersistence" style="stroke: #4A4A7A; stroke-width: 1.0; stroke-dasharray: 7.0,7.0;"/><polygon fill="#4A4A7A" points="906.5,1347.74,910.5,1338.74,906.5,1342.74,902.5,1338.74,906.5,1347.74" style="stroke: #4A4A7A; stroke-width: 1.0;"/><text fill="#000000" font-family="sans-serif" font-size="13" lengthAdjust="spacingAndGlyphs" textLength="46" x="972.5" y="1279.0669">«uses»</text><!--MD5=[1f98411fb7cb2843c1bbf4ff2d8bbc6e]
reverse link FileSystemComponent to Directory--><path d="M584.5,1487.19 C584.5,1487.19 584.5,1555 584.5,1555 C584.5,1555 515.17,1555 437.12,1555 " fill="none" id="FileSystemComponent&lt;-Directory" style="stroke: #4A4A7A; stroke-width: 1.0; stroke-dasharray: 7.0,7.0;"/><polygon fill="none" points="577.5,1487.19,584.5,1467.19,591.5,1487.19,577.5,1487.19" style="stroke: #4A4A7A; stroke-width: 1.0;"/><!--MD5=[2fbe5ba494068537dbfb02841b97f354]
reverse link FileSystemComponent to File--><path d="M696.5,1487.12 C696.5,1487.12 696.5,1564.4 696.5,1564.4 " fill="none" id="FileSystemComponent&lt;-File" style="stroke: #4A4A7A; stroke-width: 1.0; stroke-dasharray: 7.0,7.0;"/><polygon fill="none" points="689.5,1487.12,696.5,1467.12,703.5,1487.12,689.5,1487.12" style="stroke: #4A4A7A; stroke-width: 1.0;"/><!--MD5=[fcf7cb62620c6cc87e65aaae9ac44dde]
link FileSystemComponent to FileSystemComponentType--><path d="M808.75,1450 C879.51,1450 945.75,1450 945.75,1450 C945.75,1450 945.75,1650.41 945.75,1650.41 " fill="none" id="FileSystemComponent-&gt;FileSystemComponentType" style="stroke: #4A4A7A; stroke-width: 1.0; stroke-dasharray: 7.0,7.0;"/><polygon fill="#4A4A7A" points="945.75,1655.41,949.75,1646.41,945.75,1650.41,941.75,1646.41,945.75,1655.41" style="stroke: #4A4A7A; stroke-width: 1.0;"/><text fill="#000000" font-family="sans-serif" font-size="13" lengthAdjust="spacingAndGlyphs" textLength="46" x="946.5" y="1510.0669">«uses»</text><!--MD5=[052c99ff4c4392f0ee68c9e3bbe1e7a2]
@startuml VFSClassDiagram_v7

skinparam backgroundColor #FFFFFF
skinparam classBackgroundColor #F5F7FA
skinparam classBorderColor #5A5A8A
skinparam classBorderThickness 1
skinparam classHeaderBackgroundColor #D0D4F0
skinparam classFontColor #1A1A2E
skinparam classAttributeFontColor #2C2C4A
skinparam classStereotypeFontColor #5555AA
skinparam arrowColor #4A4A7A
skinparam arrowThickness 1
skinparam lineType ortho
skinparam shadowing false
skinparam roundcorner 4
skinparam defaultFontName sans-serif
skinparam defaultFontSize 13

skinparam class {
    AttributeFontColor #2C2C4A
    AttributeFontSize 12
    MethodFontColor #1A6B1A
    MethodFontSize 12
}


class Application {
    - fs        : FileSystem
    - factory   : ICommandFactory
    - processor : CommandProcessor
    - -
    + start() : void
}


class CommandProcessor {
    - -
    + run() : void
}


interface ICommandFactory <<interface>> {
    - -
    + createCommand(name: string) : unique_ptr<ICommand>
}

class ConcreteCommandFactory {
    - -
    + createCommand(name: string) : unique_ptr<ICommand>
}

interface ICommand <<interface>> {
    - -
    + execute(args: vector<string>) : void
}

class ConcreteCommands <<group>> {
    MkdirCommand
    TouchCommand
    LsCommand
    CdCommand
    PwdCommand
    RmCommand
    CpCommand
    CatCommand
    EchoCommand
    FindCommand
    MvCommand
    - -
    + execute(args: vector<string>) : void
}


class FileSystem {
    - root : shared_ptr<Directory>
    - cwd  : shared_ptr<Directory>
    - -
    + initialize() : void
    + createDir(path: string) : bool
    + createFile(path: string) : bool
    + removeFile(path: string) : bool
    + removeDir(path: string) : bool
    + changeDir(path: string) : bool
    + getCurrentPath() : string
    + rename(path: string, newName: string) : bool
    + move(src: string, dst: string) : bool
    + resolveFile(path: string) : shared_ptr<File>
    + resolveDir(path: string) : shared_ptr<Directory>
}


interface FileSystemComponent <<interface>> {
    - -
    + getName() : string
    + getSize() : size_t
    + getComponentType() : FileSystemComponentType
    + getCreationTime() : time_t
    + getModificationTime() : time_t
    + setName(name: string) : void
    + updateModificationTime() : void
}


class Directory {
    - name             : string
    - creationTime     : time_t
    - modificationTime : time_t
    - children         : vector<shared_ptr<FileSystemComponent>>
    - parent           : weak_ptr<Directory>
    - -
    + getName() : string
    + getSize() : size_t
    + getComponentType() : FileSystemComponentType
    + getCreationTime() : time_t
    + getModificationTime() : time_t
    + setName(name: string) : void
    + updateModificationTime() : void
    + getParent() : weak_ptr<Directory>
    + addChild(component: shared_ptr<FileSystemComponent>) : void
    + removeChild(name: string) : void
    + hasChild(name: string) : bool
    + getChildren() : vector<shared_ptr<FileSystemComponent>>
    + findChild(name: string) : shared_ptr<FileSystemComponent>
}


class File {
    - name             : string
    - content          : string
    - creationTime     : time_t
    - modificationTime : time_t
    - -
    + getName() : string
    + getSize() : size_t
    + getComponentType() : FileSystemComponentType
    + getCreationTime() : time_t
    + getModificationTime() : time_t
    + setName(name: string) : void
    + updateModificationTime() : void
    + getContent() : string
    + setContent(content: string) : void
    + appendContent(content: string) : void
    + searchLines(pattern: string) : vector<string>
}


interface IFileSystemPersistence <<interface>> {
    - -
    + serialize(fs: const FileSystem&) : void
    + deserialize(fs: FileSystem&) : void
}


enum FileSystemComponentType {
    FILE
    DIRECTORY
}


Application *- - FileSystem
Application *- - ConcreteCommandFactory
Application *- - CommandProcessor

CommandProcessor ..> FileSystem       : <<uses>>
CommandProcessor ..> ICommandFactory  : <<uses>>

ICommandFactory <|.. ConcreteCommandFactory

ConcreteCommandFactory ..> ICommand   : <<creates>>

ICommand <|.. ConcreteCommands

ConcreteCommands ..> FileSystem       : <<uses>>

FileSystem o- - FileSystemComponent    : <<manages>>
FileSystem ..> IFileSystemPersistence : <<uses>>

FileSystemComponent <|.. Directory
FileSystemComponent <|.. File

FileSystemComponent ..> FileSystemComponentType : <<uses>>

@enduml

PlantUML version 1.2020.02(Sun Mar 01 10:22:07 UTC 2020)
(GPL source distribution)
Java Runtime: OpenJDK Runtime Environment
JVM: OpenJDK 64-Bit Server VM
Java Version: 21.0.10+7-Ubuntu-124.04
Operating System: Linux
Default Encoding: UTF-8
Language: en
Country: US
--></g></svg>